<?xml version="1.0" encoding="utf-8"?>
<!-- Generator: Adobe Illustrator 23.0.0, SVG Export Plug-In . SVG Version: 6.00 Build 0)  -->
<svg xmlns="http://www.w3.org/2000/svg" viewBox="0 0 92 59" class="svg-camp">
<path d="M72,35.5c2.5,5.1,4.1,6.9,3,10.8l-7.4,12.4c0,0-31.2-57.9-33-58.6h13c2.1,0,4.1,0.7,5.7,2.1C55.8,4.8,67.4,26.2,72,35.5z
	 M91.7,6.4C91.3,2.6,88-0.2,84.1,0c-3.7,0.1-6.7,3.2-6.6,7c0,0.1,0,0.1,0,0.2c0.4,3.8,3.7,6.7,7.6,6.4c0.4,0,0.9-0.1,1.3-0.2
	l-2.8,5.7l1.2,2.1c0,0,6.5-12,6.2-11.4C91.7,8.8,91.9,7.6,91.7,6.4z M19.8,2.1c-1.8-2.3-6-2.1-6.3-2.1S0,0,0,0l18.9,27.2v31.5
	c0,0,9.9,0.2,12.3,0c2.4-0.2,2.6-3.8,2.6-3.8s-0.2-23.5,0-28.6c0.2-2.9-0.7-5.7-2.6-8C31.2,18.3,21.6,4.4,19.8,2.1z"/>
</svg>
